<svg width="514" height="371" viewBox="0 0 514 371" fill="none" xmlns="http://www.w3.org/2000/svg">
<path d="M328.626 367.572C288.665 376.953 278.081 324.522 239.38 324.887C188.745 325.366 132.879 379.012 86.3033 369.861C39.0305 360.572 15.0699 319.317 5.33573 278.9C-5.1924 235.187 -1.3771 183.319 30.2932 137.303C61.5911 91.8274 117.526 57.7236 172.888 35.4498C221.944 15.7133 269.24 26.3509 319.014 21.1432C367.133 16.1086 422.348 -10.6794 460.61 5.34619C498.937 21.3993 512.881 62.7365 513.038 102.409C513.177 137.497 481.807 172.59 461.411 208.004C445.828 235.063 428.682 260.123 407.659 285.387C383.295 314.666 366.748 358.624 328.626 367.572Z" fill="#484C9A"/>
</svg>
