<svg width="21" height="20" viewBox="0 0 21 20" fill="none" xmlns="http://www.w3.org/2000/svg">
<path fill-rule="evenodd" clip-rule="evenodd" d="M16.3 9.97C15.96 10.59 15.3 11 14.55 11H7.1L6 13H18V15H6C4.48 15 3.52 13.37 4.25 12.03L5.6 9.59L2 2H0V0H3.27L4.21 2H19.01C19.77 2 20.25 2.82 19.88 3.48L16.3 9.97ZM17.31 4H5.16L7.53 9H14.55L17.31 4ZM6 16C4.9 16 4.01 16.9 4.01 18C4.01 19.1 4.9 20 6 20C7.1 20 8 19.1 8 18C8 16.9 7.1 16 6 16ZM14.01 18C14.01 16.9 14.9 16 16 16C17.1 16 18 16.9 18 18C18 19.1 17.1 20 16 20C14.9 20 14.01 19.1 14.01 18Z" fill="white"/>
</svg>
